trial_4_IK.mot
nRows=5
nColumns=42

name trial_4_IK.mot
datacolumns 42
datarows 5
range 6.3000000000 6.3400000000
endheader
time	pelvis_tilt	pelvis_list	pelvis_rotation	pelvis_tx	pelvis_ty	pelvis_tz	hip_flexion_r	hip_adduction_r	hip_rotation_r	knee_angle_r	knee_vv_r	knee_rot_r	ankle_angle_r	subtalar_angle_r	mtp_angle_r	hip_flexion_l	hip_adduction_l	hip_rotation_l	knee_angle_l	knee_vv_l	knee_rot_l	ankle_angle_l	subtalar_angle_l	mtp_angle_l	lumbar_extension	lumbar_bending	lumbar_rotation	arm_flex_r	arm_add_r	arm_rot_r	elbow_flex_r	pro_sup_r	wrist_flex_r	wrist_dev_r	arm_flex_l	arm_add_l	arm_rot_l	elbow_flex_l	pro_sup_l	wrist_flex_l	wrist_dev_l
        6.3000000000	        8.6100234400	        4.4379933200	       -2.7758306400	        0.0817862500	        0.9150088800	       -0.0609671400	       12.5014286900	       -8.1773498900	        0.7702506500	      -60.1803336000	        0.0000000000	        0.0000000000	        4.1332039700	        0.0000000000	        0.0000000000	       -1.6528289300	        9.5376192200	       -5.6381641200	       -9.4011532100	        0.0000000000	        0.0000000000	        1.0614909200	        0.0000000000	        0.0000000000	      -23.0048295700	       -3.3924638900	       -2.5093729600	       -0.8765228300	       -9.9423164000	       39.1226678300	        4.0091273400	       86.5166270600	        0.0000000000	        0.0000000000	       22.2353933500	      -17.5783659000	       32.7440064400	       18.9765669300	       85.9436692700	        0.0000000000	        0.0000000000	
        6.3100000000	        8.4019387200	        4.2620941900	       -2.4277096800	        0.0808520000	        0.9155552100	       -0.0622310700	       13.4581289300	       -8.1457080600	       -0.0495579800	      -59.0337224700	        0.0000000000	        0.0000000000	        4.8153234100	        0.0000000000	        0.0000000000	       -2.2131484200	        9.4256037400	       -5.2820118100	       -8.9494520900	        0.0000000000	        0.0000000000	        1.2183537000	        0.0000000000	        0.0000000000	      -22.7475357300	       -3.0043586100	       -2.9605629800	       -1.8039492800	       -9.7822019600	       38.9853530800	        3.8843619800	       86.5166270600	        0.0000000000	        0.0000000000	       22.7604829400	      -17.9004644200	       31.9588999100	       19.9585561100	       85.9436692700	        0.0000000000	        0.0000000000	
        6.3200000000	        8.2081562000	        4.0838026200	       -2.1294256400	        0.0799126000	        0.9160106300	       -0.0633202000	       14.3118784700	       -8.0920077900	       -0.8445996700	      -57.6201526700	        0.0000000000	        0.0000000000	        5.3445246900	        0.0000000000	        0.0000000000	       -2.7950274700	        9.2927967400	       -5.0498258300	       -8.4904156000	        0.0000000000	        0.0000000000	        1.3837340600	        0.0000000000	        0.0000000000	      -22.4981159900	       -2.6462353100	       -3.3407189500	       -2.7050444800	       -9.6323647500	       38.7771146500	        3.7580990000	       86.5166270600	        0.0000000000	        0.0000000000	       23.2322727400	      -18.2138336400	       31.1258790000	       21.0095947900	       85.9436692700	        0.0000000000	        0.0000000000	
        6.3300000000	        8.0473847600	        3.9072107500	       -1.8819275000	        0.0789771600	        0.9163910000	       -0.0642158400	       15.0437330200	       -8.0150833100	       -1.6044358400	      -55.9475722300	        0.0000000000	        0.0000000000	        5.7210501700	        0.0000000000	        0.0000000000	       -3.4216152700	        9.1455669100	       -4.9352791200	       -8.0138353500	        0.0000000000	        0.0000000000	        1.5599681700	        0.0000000000	        0.0000000000	      -22.2821912900	       -2.3194785000	       -3.6605457600	       -3.5669559600	       -9.4904097200	       38.5102141900	        3.6287674100	       86.5166270600	        0.0000000000	        0.0000000000	       23.6431588300	      -18.5259132300	       30.2307439000	       22.1411636100	       85.9436692700	        0.0000000000	        0.0000000000	
        6.3400000000	        7.9328774800	        3.7370296800	       -1.6823654000	        0.0780598100	        0.9167018200	       -0.0649170000	       15.6425749500	       -7.9162355100	       -2.3175461800	      -54.0335268700	        0.0000000000	        0.0000000000	        5.9470816600	        0.0000000000	        0.0000000000	       -4.1084868700	        8.9934458200	       -4.9149273800	       -7.5101891700	        0.0000000000	        0.0000000000	        1.7478423400	        0.0000000000	        0.0000000000	      -22.1174413900	       -2.0265484300	       -3.9331560600	       -4.3808360100	       -9.3545398100	       38.2004795500	        3.4972150300	       86.5166270600	        0.0000000000	        0.0000000000	       23.9897110300	      -18.8416623600	       29.2760061500	       23.3484063200	       85.9436692700	        0.0000000000	        0.0000000000	
